<?xml version="1.0" standalone="no"?>
<!DOCTYPE svg PUBLIC "-//W3C//DTD SVG 20010904//EN"
 "http://www.w3.org/TR/2001/REC-SVG-20010904/DTD/svg10.dtd">
<svg version="1.0" xmlns="http://www.w3.org/2000/svg"
 width="513.000000pt" height="513.000000pt" viewBox="0 0 513.000000 513.000000"
 preserveAspectRatio="xMidYMid meet">
<metadata>
Created by potrace 1.14, written by Peter Selinger 2001-2017
</metadata>
<g transform="translate(0.000000,513.000000) scale(0.100000,-0.100000)"
fill="#000000" stroke="none">
<path d="M2006 4662 c-3 -2 -2 -11 1 -20 4 -10 3 -14 -2 -10 -4 4 -14 3 -22
-3 -17 -14 -17 2 0 21 10 12 9 12 -4 2 -9 -6 -19 -8 -23 -4 -4 4 -6 0 -4 -8 2
-8 -3 -14 -9 -15 -7 0 -13 -4 -14 -10 -1 -16 -20 -35 -29 -30 -5 3 -12 0 -16
-6 -4 -8 -3 -9 4 -5 7 4 12 2 12 -3 0 -6 -8 -11 -17 -11 -15 0 -16 -2 -3 -10
14 -9 7 -14 -13 -11 -5 1 -6 -3 -2 -9 3 -5 0 -10 -7 -10 -8 0 -6 -5 5 -11 9
-5 17 -15 17 -21 0 -7 -4 -7 -14 1 -11 9 -13 5 -12 -21 1 -18 -3 -36 -8 -40
-7 -5 -6 -8 2 -8 7 0 10 -4 7 -10 -3 -5 -1 -10 5 -10 6 0 9 -4 5 -9 -3 -5 2
-17 11 -25 10 -11 11 -16 3 -16 -7 0 -9 -3 -6 -6 4 -4 13 -1 22 6 17 14 21 0
5 -16 -7 -7 -4 -17 11 -30 12 -10 24 -18 28 -16 3 1 6 -1 6 -5 0 -5 4 -13 8
-20 4 -6 -36 -100 -92 -215 -99 -204 -215 -442 -396 -813 -260 -533 -288 -590
-564 -1157 -150 -309 -477 -980 -555 -1139 -22 -45 -33 -56 -52 -56 -15 0 -21
4 -17 11 4 6 -1 5 -10 -3 -9 -7 -17 -9 -17 -3 0 5 -11 10 -25 10 -13 0 -22 -4
-19 -9 3 -5 0 -9 -5 -9 -6 0 -11 6 -11 13 0 8 -3 9 -8 1 -4 -6 -15 -10 -25 -8
-10 1 -14 -2 -10 -9 4 -6 1 -8 -8 -5 -8 3 -23 0 -33 -8 -16 -11 -17 -16 -6
-30 12 -14 11 -15 -6 -12 -10 1 -22 7 -25 12 -4 5 -10 -1 -14 -13 -3 -11 -11
-21 -16 -21 -6 0 -8 -4 -4 -9 3 -5 1 -12 -5 -16 -6 -4 -8 -11 -4 -16 3 -5 10
-7 15 -4 5 4 9 2 9 -3 0 -17 -13 -22 -29 -10 -9 7 -13 8 -9 4 4 -5 3 -15 -4
-23 -6 -7 -8 -16 -4 -20 3 -3 6 -1 6 6 0 7 5 9 11 6 7 -5 4 -14 -8 -28 -10
-11 -12 -17 -4 -12 10 6 12 3 7 -13 -4 -11 -2 -23 3 -26 6 -4 8 -13 4 -21 -3
-8 0 -15 7 -15 6 0 8 -4 5 -10 -3 -5 -1 -10 5 -10 6 0 8 -5 5 -10 -3 -6 -1
-10 5 -10 6 0 9 -4 6 -8 -7 -12 26 -12 40 0 8 5 14 3 18 -7 3 -9 2 -13 -3 -10
-5 3 -13 0 -16 -6 -11 -16 27 -39 47 -28 24 13 27 11 23 -10 -4 -21 26 -23 33
-3 2 7 8 10 13 7 5 -4 6 2 2 11 -4 11 -2 15 4 11 6 -4 18 4 27 17 13 20 13 24
1 22 -8 -1 -18 -5 -21 -9 -12 -11 -21 -8 -21 8 0 17 24 28 32 14 4 -5 18 -1
35 11 15 11 33 20 40 20 6 0 9 4 5 9 -3 5 1 15 8 23 7 7 13 28 13 47 0 29 4
35 37 46 20 7 37 10 37 8 0 -3 6 -1 13 5 14 12 53 25 492 167 165 53 325 105
355 115 30 10 120 39 200 65 80 25 235 75 345 111 110 36 274 89 365 119 91
29 255 83 365 118 110 36 272 89 360 117 88 28 257 83 375 122 118 38 269 87
335 108 66 21 322 104 570 184 247 81 453 145 457 144 4 -2 -51 -93 -123 -203
-72 -110 -158 -243 -192 -295 -75 -116 -244 -376 -340 -523 -38 -59 -73 -104
-77 -100 -4 4 -47 82 -95 173 -48 91 -100 188 -115 215 -15 28 -40 73 -55 102
l-27 52 -58 -1 c-55 -2 -58 -3 -50 -22 5 -12 71 -138 148 -281 119 -223 137
-263 129 -283 -7 -14 -13 -18 -17 -11 -6 8 -9 8 -14 0 -4 -6 -2 -11 5 -11 7 0
9 -3 5 -8 -4 -4 -12 -7 -18 -7 -6 0 -20 -13 -32 -28 l-21 -29 23 -18 c14 -12
18 -21 12 -25 -6 -4 -18 1 -26 11 -14 17 -15 17 -10 2 3 -10 0 -18 -6 -18 -7
0 -6 -5 2 -15 10 -12 10 -15 -1 -15 -9 0 -10 -3 -3 -8 5 -4 10 -22 9 -40 0
-18 5 -38 12 -44 7 -5 10 -15 6 -21 -3 -6 -1 -7 6 -3 6 4 9 12 6 17 -4 5 -2 9
3 9 16 0 22 -13 11 -27 -9 -9 -8 -13 0 -13 6 0 11 6 11 13 0 8 4 7 10 -3 15
-23 12 -29 -10 -25 -12 2 -18 0 -15 -6 4 -5 10 -7 15 -4 5 3 11 1 15 -5 10
-16 25 -12 25 7 0 19 13 9 16 -12 1 -8 -5 -15 -14 -15 -12 0 -9 -4 8 -13 14
-7 28 -9 31 -5 3 5 11 2 18 -6 14 -16 39 -15 50 3 6 10 10 8 15 -5 6 -15 9
-15 31 6 25 24 35 16 13 -10 -7 -8 -4 -7 7 2 11 9 23 16 27 15 3 -1 10 2 15 7
5 5 3 6 -4 2 -7 -4 -13 -2 -13 5 0 6 8 9 20 6 13 -3 26 3 39 19 10 13 22 20
26 16 5 -4 5 -2 2 5 -4 6 -1 14 5 16 10 4 10 6 1 6 -7 1 -13 6 -13 12 0 5 4 8
9 4 6 -3 15 4 22 16 9 17 8 23 -2 30 -7 4 -17 5 -21 3 -4 -3 -8 3 -8 12 0 10
3 14 7 11 3 -4 13 -1 21 6 13 10 15 9 9 -6 -4 -10 -3 -16 2 -12 5 3 7 22 5 43
-2 20 -5 43 -6 50 -1 6 -5 12 -10 12 -5 0 -6 5 -2 12 4 6 3 8 -4 4 -6 -3 -13
-2 -17 4 -3 5 0 10 7 10 9 0 9 3 2 8 -6 4 -16 17 -23 30 -7 12 -16 20 -22 17
-29 -19 2 47 82 170 120 184 141 216 374 575 109 168 218 337 243 375 53 81
60 89 87 98 19 7 19 6 2 -7 -17 -13 -17 -14 0 -21 31 -14 47 -14 62 -2 12 10
14 9 8 -6 -5 -14 -3 -16 12 -8 10 6 21 8 25 6 3 -3 3 -2 0 2 -3 5 -11 8 -16 8
-6 0 -13 7 -15 15 -4 12 -3 12 5 1 6 -8 12 -9 16 -3 3 6 1 13 -4 15 -7 4 -6 5
1 4 6 -2 10 -6 9 -10 0 -4 6 -15 15 -23 11 -12 19 -13 29 -5 7 6 15 9 17 6 3
-2 25 12 49 32 25 20 37 33 27 30 -11 -4 -17 -3 -15 4 2 6 6 9 9 7 13 -7 37
24 32 39 -5 11 -3 14 6 8 10 -6 11 -3 2 13 -14 27 -14 33 2 29 6 -1 12 5 12
13 0 8 5 18 10 22 6 5 6 8 -2 8 -7 0 -10 9 -8 21 3 16 1 18 -9 10 -10 -9 -15
-8 -19 4 -4 8 -1 14 5 12 5 -1 12 6 13 16 2 9 -1 17 -6 17 -6 0 -8 4 -5 9 3 5
-1 12 -10 15 -8 3 -13 10 -9 15 3 5 1 12 -4 16 -6 3 -8 -3 -6 -14 3 -14 -2
-19 -16 -18 -19 1 -28 17 -9 17 6 0 10 5 10 11 0 8 -4 9 -13 0 -8 -6 -17 -8
-21 -4 -4 4 2 12 13 17 16 9 17 13 5 24 -8 7 -14 8 -14 2 0 -5 -4 -10 -10 -10
-5 0 -9 3 -7 8 1 4 -2 8 -7 9 -5 1 -13 7 -17 15 -7 10 -9 10 -9 1 0 -7 -5 -13
-11 -13 -5 0 -7 4 -4 10 7 11 6 11 -48 14 -21 1 -40 -1 -43 -6 -3 -5 -9 -6
-14 -3 -5 3 -20 0 -35 -7 -19 -8 -22 -14 -13 -21 9 -6 6 -7 -9 -4 -17 4 -20 1
-16 -12 4 -9 2 -13 -2 -8 -13 11 -54 -33 -48 -51 4 -10 2 -13 -5 -8 -8 5 -10
1 -5 -10 5 -13 3 -15 -7 -9 -9 6 -11 4 -5 -5 4 -7 2 -16 -6 -21 -11 -7 -11 -9
-1 -9 7 0 10 -5 7 -10 -12 -20 -15 -60 -5 -60 6 0 8 -5 4 -12 -4 -7 -3 -8 5
-4 6 4 9 12 6 17 -4 5 -1 10 4 10 6 1 17 2 24 3 6 1 15 -3 19 -9 5 -6 8 -6 8
2 0 6 -4 15 -10 18 -13 8 -13 35 1 35 5 0 8 -4 4 -9 -3 -5 0 -13 6 -17 8 -5 9
-3 4 6 -5 9 -4 11 4 6 7 -5 9 -16 5 -28 -5 -15 -3 -19 7 -13 8 5 10 4 6 0 -7
-9 -24 -14 -59 -19 -9 -1 -22 -7 -30 -13 -7 -6 -65 -27 -128 -47 -63 -21 -196
-63 -295 -96 -99 -32 -328 -106 -510 -165 -760 -245 -1385 -448 -1465 -475
-30 -10 -118 -38 -195 -63 -77 -25 -306 -99 -510 -165 -203 -66 -539 -175
-745 -242 -206 -66 -385 -125 -398 -130 -13 -6 -25 -10 -27 -10 -7 0 30 79
180 385 76 154 172 352 215 440 43 88 126 259 185 380 59 121 142 292 185 380
43 88 125 257 183 375 57 118 163 334 234 480 126 258 259 531 386 794 l63
129 84 -159 c46 -88 93 -177 105 -199 12 -22 50 -94 85 -160 35 -66 101 -192
148 -280 47 -88 104 -195 126 -238 l41 -77 30 60 30 61 -26 47 c-29 51 -81
150 -151 282 -25 47 -118 223 -207 392 -90 169 -164 315 -165 323 -1 9 -7 20
-13 23 -18 12 -20 37 -4 49 14 11 13 12 -7 8 -23 -4 -23 -4 5 29 34 39 55 23
26 -21 -10 -15 -12 -24 -6 -20 9 6 11 3 6 -8 -5 -13 -7 -14 -14 -3 -7 10 -9 9
-9 -4 0 -9 5 -20 10 -23 6 -3 10 -2 10 4 0 10 25 9 36 -2 6 -6 -8 -11 -27 -9
-3 1 -6 -5 -6 -13 0 -10 7 -9 29 6 15 11 26 25 22 30 -3 5 -9 7 -14 4 -4 -3
-11 2 -14 11 -9 25 -8 26 19 8 14 -9 28 -14 32 -10 3 3 1 6 -5 6 -7 0 -12 5
-12 11 0 6 7 8 16 5 8 -3 12 -2 9 3 -3 5 -1 12 4 16 5 3 10 13 10 23 0 9 2 34
4 55 2 21 0 40 -5 43 -5 3 -6 10 -3 15 4 5 2 9 -4 9 -5 0 -8 9 -6 20 2 12 -2
23 -10 27 -8 3 -13 9 -10 13 3 5 0 12 -6 16 -8 5 -9 3 -5 -5 10 -15 -25 -11
-36 4 -13 18 -8 28 7 15 20 -16 19 -3 0 17 -9 8 -19 13 -22 9 -3 -3 -12 -1
-20 5 -7 6 -13 8 -14 3 0 -5 -4 0 -9 11 -8 18 -9 18 -9 2 -1 -10 -6 -15 -11
-12 -6 4 -8 10 -6 14 5 8 -91 11 -98 3z m24 -12 c0 -5 -2 -10 -4 -10 -3 0 -8
5 -11 10 -3 6 -1 10 4 10 6 0 11 -4 11 -10z m17 -4 c-4 -11 -1 -13 11 -9 15 6
15 5 3 -10 -7 -9 -17 -15 -21 -12 -5 3 -7 -3 -6 -12 3 -19 20 -21 22 -3 3 23
5 24 14 10 9 -13 11 -13 20 0 5 8 10 12 11 8 8 -41 21 -59 34 -48 15 13 24 3
20 -23 -2 -9 1 -15 6 -11 5 3 7 10 4 15 -4 5 0 9 7 9 8 1 6 6 -6 15 -11 9 -14
15 -7 15 9 0 8 5 -3 16 -9 8 -16 21 -16 27 0 8 3 7 9 -2 5 -7 13 -11 18 -8 6
4 9 -4 7 -18 -1 -14 2 -25 7 -25 11 0 4 -49 -8 -61 -4 -4 -23 6 -41 22 -18 16
-29 29 -25 29 3 0 4 3 1 6 -4 3 -16 0 -28 -6 -12 -7 -20 -8 -16 -2 3 5 -5 10
-19 10 -13 0 -26 -7 -29 -15 -3 -8 -10 -12 -15 -9 -5 3 -11 -1 -15 -9 -3 -8
-12 -12 -21 -9 -12 5 -13 10 -4 20 6 8 16 11 23 7 6 -4 5 0 -2 9 -18 23 1 58
28 53 12 -2 21 3 25 16 4 10 9 19 12 19 3 0 3 -7 0 -14z m43 4 c0 -5 -4 -10
-9 -10 -6 0 -13 5 -16 10 -3 6 1 10 9 10 9 0 16 -4 16 -10z m49 -37 c11 -24 0
-40 -19 -28 -8 5 -7 12 2 23 8 10 9 13 1 9 -6 -4 -14 -3 -18 2 -3 6 -13 8 -23
5 -14 -5 -14 -4 -3 4 23 16 49 10 60 -15z m-169 -3 c0 -5 -5 -10 -11 -10 -8 0
-8 -4 0 -14 9 -10 8 -16 -4 -26 -14 -12 -14 -15 0 -30 8 -9 12 -20 8 -24 -5
-4 -8 -12 -8 -17 0 -5 -3 -9 -7 -9 -44 0 -44 0 -25 11 9 6 15 14 12 20 -4 5
-1 9 5 9 6 0 8 5 5 10 -3 6 -14 10 -23 10 -10 0 -13 -3 -7 -8 12 -8 18 -32 9
-32 -4 0 -12 7 -19 16 -11 15 -12 15 -12 0 0 -9 4 -16 9 -16 5 0 6 -5 3 -11
-5 -6 -12 -4 -21 8 -11 15 -11 20 4 33 9 9 18 22 20 30 4 16 42 58 55 59 4 1
7 -3 7 -9z m277 -65 c0 -17 -24 -28 -39 -18 -7 4 -8 1 -3 -7 5 -8 4 -11 -2 -7
-13 8 -13 -26 1 -35 8 -5 7 -8 -1 -8 -7 0 -13 -4 -13 -10 0 -5 3 -9 8 -9 4 1
14 1 22 0 12 -1 12 -3 -2 -11 -9 -6 -15 -18 -13 -28 2 -9 4 -20 4 -24 1 -8 28
-4 38 6 4 4 3 7 -2 6 -21 -5 -36 0 -30 10 3 5 13 7 23 4 14 -5 15 -4 2 5 -8 5
-11 13 -7 17 10 10 17 1 22 -29 4 -18 -1 -29 -19 -41 -16 -10 -27 -12 -31 -6
-4 6 -12 7 -18 3 -7 -4 -7 0 1 10 12 14 12 21 -1 45 -23 46 -9 125 20 120 9
-2 18 3 20 10 3 6 0 12 -7 12 -6 0 -8 -4 -5 -10 4 -6 -1 -7 -11 -3 -11 4 -13
8 -6 11 7 2 10 8 6 13 -3 5 6 4 19 -2 13 -6 24 -17 24 -24z m8 -42 c8 -21 7
-23 -2 -22 -5 1 -7 5 -5 11 1 5 -3 6 -9 2 -8 -5 -9 -3 -4 6 5 9 4 11 -4 6 -8
-6 -9 -12 -2 -20 6 -7 7 -16 3 -20 -4 -4 -2 -7 3 -6 21 4 32 0 32 -14 0 -10
-6 -10 -28 3 -15 8 -25 19 -23 23 2 3 -1 10 -6 13 -7 5 -5 12 7 21 24 18 30
17 38 -3z m-348 -45 c-1 -10 -10 -21 -20 -24 -15 -5 -17 -8 -6 -15 7 -4 10
-11 6 -15 -11 -12 -20 3 -22 39 -1 28 2 33 21 33 15 0 22 -6 21 -18z m43 -14
c0 -8 0 -16 0 -19 -2 -15 36 -65 49 -65 18 0 6 -13 -14 -16 -8 -1 -16 2 -16 7
-1 5 -2 15 -3 22 -1 6 -11 11 -23 11 -14 -1 -20 3 -16 12 3 8 10 11 17 7 6 -3
7 -2 3 2 -16 19 -34 12 -34 -12 0 -16 4 -22 13 -19 7 3 16 0 20 -6 5 -7 2 -8
-7 -3 -11 6 -12 5 -1 -6 13 -14 17 -33 4 -25 -4 2 -14 1 -22 -5 -10 -6 -11 -9
-2 -9 6 0 12 -5 12 -11 0 -8 -5 -7 -15 1 -14 12 -14 15 1 31 11 12 13 19 6 20
-21 3 -27 4 -40 13 -10 6 -10 11 4 20 11 8 14 18 9 26 -5 9 -4 11 3 6 7 -4 13
-2 13 3 1 10 3 19 8 36 3 11 31 -8 31 -21z m30 -114 c5 9 9 9 14 1 4 -6 2 -11
-4 -11 -6 0 -8 -5 -4 -12 4 -7 3 -8 -4 -4 -8 5 -12 0 -12 -13 0 -12 -4 -21
-10 -21 -5 0 -9 3 -8 8 1 4 -4 18 -11 31 -7 13 -8 21 -3 17 6 -3 14 -1 18 6 6
9 9 9 12 -1 3 -10 6 -10 12 -1z m2895 -1820 c-3 -5 -1 -10 4 -10 6 0 11 6 11
13 0 8 4 7 10 -3 5 -8 10 -19 10 -25 0 -5 -5 -3 -10 5 -5 8 -10 10 -10 5 0 -6
-9 -11 -20 -12 -11 -1 -20 3 -20 8 0 6 -5 7 -11 3 -8 -4 -7 -9 2 -15 8 -5 12
-9 9 -10 -3 0 -13 -2 -22 -4 -11 -2 -16 3 -15 16 1 19 23 33 37 24 5 -3 11 -1
15 5 3 5 8 10 11 10 3 0 2 -4 -1 -10z m69 -7 c3 -7 4 -15 3 -17 -1 -1 5 -11
13 -21 14 -17 14 -17 -7 -6 -15 7 -20 17 -17 29 5 14 4 14 -4 2 -6 -8 -9 -17
-6 -21 5 -9 -22 -20 -30 -12 -10 11 -6 23 7 21 7 -2 11 6 10 18 -2 23 23 29
31 7z m50 -14 c-2 -4 0 -10 6 -14 6 -4 8 -10 5 -15 -3 -5 -1 -11 5 -15 6 -4 8
-11 4 -16 -4 -6 -10 -6 -18 0 -9 8 -13 7 -13 -4 0 -8 4 -12 8 -10 8 5 23 -24
20 -40 -1 -5 6 -1 14 9 8 11 15 25 15 30 0 6 5 4 10 -4 8 -12 12 -12 18 -2 6
9 12 6 20 -12 10 -22 9 -24 -5 -19 -12 5 -15 2 -10 -10 3 -9 2 -19 -3 -22 -12
-8 -41 6 -34 17 3 5 13 4 22 -4 15 -11 15 -11 5 3 -7 9 -10 18 -7 21 3 3 0 9
-7 14 -7 4 -10 3 -6 -3 4 -6 0 -16 -8 -23 -12 -10 -18 -10 -30 0 -8 7 -13 16
-10 20 7 12 -65 38 -97 35 -15 -1 -28 1 -28 6 0 5 5 9 12 9 6 0 9 3 5 6 -3 3
-14 1 -24 -5 -10 -6 -14 -11 -9 -11 5 0 1 -9 -8 -19 -16 -18 -52 -19 -41 -1 2
4 -2 16 -10 26 -15 18 -15 18 -9 -1 6 -16 5 -18 -7 -7 -7 6 -18 12 -23 12 -6
0 -4 -5 4 -10 10 -6 11 -10 3 -10 -7 0 -13 -4 -13 -9 0 -6 9 -8 21 -6 12 2 19
0 17 -7 -5 -15 -38 -19 -38 -5 0 7 -5 4 -11 -6 -12 -20 -23 -75 -14 -65 6 5
12 28 14 51 1 5 5 5 11 2 5 -3 3 -19 -7 -40 -18 -39 -44 -56 -37 -24 2 10 6
28 8 38 3 11 10 29 16 41 6 11 9 24 6 29 -3 5 3 16 14 26 11 10 20 15 20 10 0
-4 6 -2 14 4 9 7 17 8 20 2 5 -8 27 -8 46 -1 3 1 8 2 13 1 4 0 7 4 7 11 0 6 6
3 14 -7 15 -21 46 -29 46 -12 0 8 3 8 8 2 10 -14 39 -18 46 -6 3 5 -1 11 -9
15 -18 6 -10 33 10 33 8 0 12 -4 9 -8z m36 -79 c0 -5 -4 -10 -10 -10 -5 0 -10
5 -10 10 0 6 5 10 10 10 6 0 10 -4 10 -10z m-225 -37 c-4 -10 -8 -23 -8 -30
-1 -18 -30 1 -33 21 -1 9 2 14 6 11 5 -3 11 -1 15 5 11 17 28 11 20 -7z m270
-36 c27 -1 30 -4 31 -31 1 -17 -1 -25 -3 -18 -5 13 -24 17 -21 5 2 -14 -15
-48 -31 -61 -14 -10 -14 -12 -1 -10 8 2 20 12 27 23 11 18 12 17 9 -10 -2 -16
-5 -28 -8 -25 -9 9 -39 -23 -34 -36 3 -7 -8 -23 -24 -34 -17 -12 -30 -18 -30
-14 0 5 -5 3 -12 -4 -9 -9 -17 -6 -35 15 l-23 28 -21 -24 c-11 -14 -29 -25
-40 -26 -23 -2 -34 11 -19 20 6 4 8 11 4 16 -3 5 -10 7 -15 4 -17 -11 -9 15
11 35 15 15 25 18 38 12 9 -5 24 -8 32 -7 14 2 41 -18 40 -30 -1 -22 1 -27 6
-22 4 3 15 2 26 -4 18 -10 19 -9 7 12 -10 19 -9 25 7 36 10 7 21 13 24 13 4 0
7 6 7 13 0 6 4 21 8 32 l8 20 -16 -20 c-9 -11 -17 -26 -17 -34 0 -11 -3 -11
-17 0 -11 10 -14 10 -9 2 12 -21 -3 -36 -22 -21 -13 11 -14 11 -7 -1 5 -10 4
-12 -4 -7 -8 5 -1 18 21 39 18 18 36 28 39 23 4 -5 10 1 14 13 5 18 9 20 21
10 8 -6 15 -9 15 -5 5 23 3 32 -6 39 -6 5 -3 7 7 5 9 -2 16 1 15 7 -1 5 -10
10 -19 10 -9 1 -14 -3 -11 -8 4 -6 1 -7 -8 -2 -11 6 -12 5 -1 -6 12 -13 18
-38 5 -26 -3 4 -13 1 -21 -6 -13 -9 -14 -9 -8 0 14 24 16 57 3 66 -7 6 -5 6 8
1 11 -4 34 -7 50 -7z m-102 -171 c4 -10 1 -13 -8 -9 -8 3 -12 9 -9 14 7 12 11
11 17 -5z m-1149 -1261 c17 -34 16 -36 -6 -58 -24 -23 -30 -38 -30 -72 0 -45
3 -56 22 -75 11 -11 19 -23 18 -27 -2 -3 6 -7 16 -9 10 -1 23 -9 27 -16 7 -11
11 -10 20 2 9 12 10 11 5 -5 -6 -20 -6 -20 9 -1 8 11 15 14 15 7 0 -9 4 -8 15
3 8 8 24 18 35 21 11 4 18 10 15 15 -3 5 4 7 16 5 17 -3 20 -2 11 7 -8 8 -7
15 6 24 9 8 12 14 5 14 -6 0 -10 13 -9 31 2 21 -6 41 -20 59 l-23 27 23 38
c14 23 26 33 30 26 4 -6 4 -17 1 -23 -4 -7 1 -4 9 6 14 18 17 16 16 -11 0 -5
-9 -7 -20 -7 -11 1 -20 -3 -20 -8 0 -5 -4 -6 -10 -3 -5 3 -10 1 -10 -5 0 -7 7
-10 15 -6 13 5 14 2 4 -15 -9 -17 -8 -20 2 -14 8 6 10 4 4 -5 -5 -9 -4 -11 4
-6 6 4 9 11 6 16 -9 15 5 36 25 37 11 1 18 -2 15 -7 -3 -5 1 -14 8 -22 43 -43
40 -101 -4 -93 -16 3 -19 1 -13 -13 4 -9 7 -24 8 -33 0 -9 6 -15 13 -12 7 3
10 10 6 16 -3 6 -1 7 5 3 14 -8 6 -32 -11 -33 -7 0 -21 -4 -32 -8 -16 -7 -18
-5 -8 5 10 11 10 17 0 29 -10 12 -9 14 6 8 15 -6 16 -4 7 13 -6 11 -13 20 -16
20 -3 0 -3 -4 1 -9 3 -5 1 -13 -5 -16 -8 -5 -8 -11 0 -20 13 -16 -3 -30 -22
-19 -7 5 -8 3 -3 -6 6 -9 4 -11 -6 -6 -8 4 -6 1 4 -7 9 -8 17 -17 17 -21 0
-10 -24 -2 -38 14 -8 8 -11 10 -8 3 8 -16 -4 -44 -16 -37 -6 4 -5 10 3 15 7 4
10 11 6 16 -9 8 -28 -17 -21 -28 7 -12 -64 -3 -79 10 -8 6 -17 8 -20 5 -3 -4
-13 1 -22 10 -9 9 -20 14 -25 11 -11 -7 -21 22 -14 40 4 8 1 15 -7 15 -7 0 -9
3 -6 7 4 3 2 12 -4 20 -9 9 -8 13 0 13 6 0 11 5 11 12 0 6 -3 8 -7 5 -3 -4
-12 -2 -20 5 -10 8 -17 8 -25 0 -13 -13 -20 -45 -9 -38 4 3 7 -8 6 -25 -2 -51
-19 -31 -20 26 -1 30 1 52 6 50 14 -9 39 7 37 23 -2 8 2 17 9 19 8 3 11 -5 8
-26 -2 -18 0 -29 6 -25 5 3 7 10 3 15 -3 5 0 16 6 24 7 8 8 15 3 15 -5 0 -9 8
-10 19 -1 15 4 18 28 16 23 -2 27 0 19 10 -12 14 -27 14 -47 2 -18 -11 -16 0
5 28 23 32 27 31 46 -10z m-79 -15 c-3 -5 -1 -10 5 -10 6 0 8 -4 5 -10 -3 -5
0 -10 7 -10 7 -1 2 -7 -12 -14 -14 -8 -28 -12 -32 -10 -12 7 -10 24 3 24 5 0
7 -5 3 -12 -4 -7 -3 -8 5 -4 8 6 9 12 2 20 -7 9 -7 16 1 24 15 15 21 16 13 2z
m-3500 -30 c-5 -8 -11 -7 -23 2 -10 8 -13 8 -9 1 5 -7 1 -10 -10 -8 -10 1 -30
-6 -45 -17 -16 -11 -28 -15 -28 -9 0 6 -3 10 -7 10 -20 -3 -24 2 -13 16 14 17
34 10 24 -8 -3 -7 2 -3 10 7 17 21 46 30 46 15 0 -6 10 -3 22 5 23 17 46 7 33
-14z m52 5 c6 -22 -9 -44 -27 -42 -11 1 -20 5 -20 10 0 4 -4 5 -10 2 -17 -11
-11 -24 10 -20 24 5 36 -11 15 -19 -8 -3 -15 -1 -15 4 0 5 -10 7 -22 4 -13 -3
-32 -7 -43 -8 -11 -2 -24 -4 -28 -5 -5 0 -5 -7 -1 -13 4 -7 4 -10 -1 -6 -10 9
-35 -16 -35 -36 0 -8 -3 -17 -8 -19 -9 -6 -8 -54 2 -85 4 -12 12 -19 18 -16 6
4 8 2 4 -4 -3 -6 3 -13 14 -17 11 -3 20 -11 20 -16 0 -6 5 -7 10 -4 6 3 11 1
11 -4 3 -21 4 -26 12 -38 8 -13 5 -14 -45 -16 -13 -1 -26 -5 -29 -9 -3 -5 -12
-2 -19 7 -11 13 -10 14 5 8 14 -5 17 -3 12 10 -10 26 15 32 34 8 10 -12 20
-17 24 -11 3 5 0 10 -7 10 -9 0 -9 3 2 10 13 9 13 10 0 11 -8 1 -19 1 -23 0
-5 -1 -5 4 -1 10 4 7 3 9 -4 5 -6 -3 -14 0 -19 8 -4 8 -12 16 -18 18 -5 2 -9
6 -8 11 2 4 -1 7 -5 7 -4 0 -8 24 -8 54 1 30 4 52 7 50 3 -2 6 9 5 24 0 16 4
26 12 24 7 -1 11 1 10 5 -4 14 23 54 32 48 4 -3 10 1 12 7 3 7 18 13 34 14 34
1 66 13 59 23 -2 4 4 7 13 6 9 0 18 -5 19 -10z m-216 -65 c6 0 7 6 3 13 -6 9
-4 9 8 -1 13 -10 17 -10 21 0 2 7 8 10 12 6 4 -4 -3 -17 -14 -29 -12 -13 -19
-29 -17 -36 3 -7 1 -15 -4 -18 -5 -3 -7 -17 -4 -30 2 -14 0 -25 -6 -25 -6 0
-9 4 -6 8 2 4 -5 14 -17 22 -19 12 -21 11 -10 -2 7 -8 10 -18 6 -21 -3 -4 -1
-7 4 -7 12 0 12 -25 0 -36 -7 -7 -11 11 -8 29 1 5 -3 6 -8 3 -5 -4 -12 -2 -15
3 -4 5 -2 13 4 16 8 5 7 12 -2 23 -7 9 -8 13 -2 9 7 -4 17 0 24 8 6 7 19 11
28 8 14 -6 15 -5 2 9 -8 9 -22 14 -32 13 -15 -3 -15 -2 0 26 10 15 19 24 20
19 2 -6 8 -10 13 -10z m3671 -40 c-2 -7 3 -17 10 -23 9 -6 7 -7 -7 -3 -20 6
-20 6 1 -11 11 -10 19 -28 18 -40 0 -13 3 -24 7 -24 5 -1 14 -2 20 -3 6 0 17
-9 24 -19 8 -12 15 -14 20 -7 3 5 11 8 16 5 13 -9 11 -22 -3 -22 -7 0 -22 -4
-32 -9 -13 -5 -17 -4 -13 3 4 6 -1 17 -10 24 -9 8 -17 12 -19 9 -8 -13 -53 66
-50 87 3 12 0 25 -5 29 -13 7 0 26 14 21 7 -3 11 -10 9 -17z m312 -101 c3 -3
-6 -18 -20 -34 -14 -17 -23 -24 -19 -17 8 17 -6 15 -33 -4 -12 -8 -22 -12 -22
-8 0 4 -11 -3 -24 -15 l-24 -23 -8 24 c-9 28 -6 33 26 34 45 2 51 4 46 13 -3
4 4 8 17 7 14 -1 22 4 21 15 -1 14 28 20 40 8z m-4028 -8 c-8 -13 20 -21 32
-9 6 6 12 6 16 -1 4 -6 1 -11 -6 -11 -9 0 -9 -3 2 -10 13 -9 13 -10 0 -10 -9
-1 -5 -5 8 -10 19 -8 21 -13 12 -30 -15 -28 -25 -25 -49 15 -11 19 -16 35 -11
35 6 0 10 -5 10 -11 0 -5 5 -7 11 -3 8 4 2 12 -15 21 -26 14 -35 33 -15 33 5
0 8 -4 5 -9z m3857 -78 c-5 -13 -29 -11 -44 4 -6 6 -19 9 -28 7 -9 -3 -5 1 9
9 14 9 28 13 32 11 3 -2 10 1 14 8 9 14 24 -20 17 -39z m-3763 -3 c0 -5 -4
-10 -10 -10 -5 0 -10 5 -10 10 0 6 5 10 10 10 6 0 10 -4 10 -10z m103 -35 c-3
-9 -8 -14 -10 -11 -3 3 -2 9 2 15 9 16 15 13 8 -4z m-39 -40 c-4 -8 -11 -12
-16 -9 -6 4 -5 10 3 15 19 12 19 11 13 -6z"/>
<path d="M1988 4609 c-3 -8 0 -23 8 -34 8 -10 14 -15 15 -9 0 5 2 20 5 34 3
17 1 21 -5 11 -7 -11 -9 -11 -13 0 -3 10 -6 10 -10 -2z"/>
<path d="M2135 4561 c-3 -5 -2 -12 3 -15 5 -3 9 1 9 9 0 17 -3 19 -12 6z"/>
<path d="M1925 4580 c-4 -6 1 -7 11 -3 13 5 15 3 9 -7 -5 -9 -4 -11 4 -6 6 4
9 12 6 17 -8 12 -22 12 -30 -1z"/>
<path d="M2186 4438 c3 -5 10 -6 15 -3 13 9 11 12 -6 12 -8 0 -12 -4 -9 -9z"/>
<path d="M2206 4368 c3 -5 10 -6 15 -3 13 9 11 12 -6 12 -8 0 -12 -4 -9 -9z"/>
<path d="M1923 4439 c-2 -23 3 -25 10 -4 4 8 3 16 -1 19 -4 3 -9 -4 -9 -15z"/>
<path d="M1950 4309 c0 -5 5 -7 10 -4 6 3 10 8 10 11 0 2 -4 4 -10 4 -5 0 -10
-5 -10 -11z"/>
<path d="M4807 2431 c13 -21 20 -26 29 -17 7 6 11 11 10 12 0 0 -13 8 -28 17
l-27 17 16 -29z"/>
<path d="M4779 2363 c-13 -16 -12 -17 4 -4 16 13 21 21 13 21 -2 0 -10 -8 -17
-17z"/>
<path d="M5033 2203 c0 -9 4 -10 14 -2 7 6 13 12 13 14 0 1 -6 2 -13 2 -8 0
-14 -6 -14 -14z"/>
<path d="M4852 2187 c-7 -8 -7 -18 -2 -27 6 -9 4 -20 -3 -30 -10 -13 -10 -13
4 -3 9 7 19 10 22 7 3 -4 12 5 18 19 7 15 17 24 23 20 6 -3 9 -4 6 0 -3 3 -9
6 -15 7 -5 1 -17 6 -26 11 -11 5 -21 4 -27 -4z m34 -24 c-3 -8 -6 -17 -6 -21
0 -3 -6 3 -14 13 -17 23 -12 37 10 28 8 -3 13 -12 10 -20z"/>
<path d="M5000 2180 c-8 -5 -11 -12 -7 -17 5 -4 12 -1 17 7 9 14 14 7 11 -13
-1 -5 3 -6 9 -2 8 5 7 11 -1 21 -13 16 -10 16 -29 4z"/>
<path d="M3790 912 c0 -5 7 -9 15 -9 8 0 12 4 9 9 -3 4 -9 8 -15 8 -5 0 -9 -4
-9 -8z"/>
<path d="M3800 860 c-8 -5 -12 -12 -9 -15 4 -3 12 1 19 10 14 17 11 19 -10 5z"/>
<path d="M4040 845 c10 -12 9 -16 -3 -20 -18 -7 -18 -62 0 -62 7 0 9 5 5 11
-12 20 -10 35 4 29 8 -3 12 -8 10 -12 -3 -4 -1 -13 5 -21 7 -13 9 -13 9 0 0
12 2 12 9 2 7 -11 9 -10 14 3 4 9 3 14 -2 11 -5 -3 -14 1 -21 9 -11 13 -10 14
5 9 13 -5 16 -3 13 7 -3 8 -13 13 -22 11 -9 -2 -16 1 -15 5 3 19 -2 33 -12 33
-8 0 -8 -5 1 -15z"/>
<path d="M270 850 c0 -5 5 -10 11 -10 5 0 7 5 4 10 -3 6 -8 10 -11 10 -2 0 -4
-4 -4 -10z"/>
<path d="M177 826 c-4 -10 -3 -15 3 -11 6 3 10 1 10 -6 0 -7 3 -10 6 -6 3 3 2
13 -4 22 -8 16 -9 16 -15 1z"/>
<path d="M141 797 c-13 -21 -12 -21 5 -5 10 10 16 20 13 22 -3 3 -11 -5 -18
-17z"/>
<path d="M136 537 c3 -10 9 -15 12 -12 3 3 0 11 -7 18 -10 9 -11 8 -5 -6z"/>
<path d="M70 786 c7 -7 13 -7 20 0 6 6 3 10 -10 10 -13 0 -16 -4 -10 -10z"/>
<path d="M3751 688 c5 -10 11 -18 12 -18 2 0 3 8 3 18 0 10 -6 19 -13 19 -8 0
-9 -6 -2 -19z"/>
<path d="M3917 601 c4 -3 10 -10 14 -14 3 -4 11 -2 17 5 8 10 5 13 -15 14 -13
1 -21 -1 -16 -5z"/>
<path d="M67 582 c1 -8 3 -16 3 -18 0 -2 4 -4 8 -4 5 0 9 7 9 15 0 8 -4 12 -8
9 -4 -2 -9 -1 -12 3 -2 5 -2 2 0 -5z"/>
<path d="M3850 593 c0 -17 14 -23 29 -14 9 6 10 11 2 15 -6 4 -11 1 -11 -6 0
-9 -3 -9 -10 2 -6 9 -10 10 -10 3z"/>
<path d="M2154 4378 l-19 -23 23 19 c21 18 27 26 19 26 -2 0 -12 -10 -23 -22z"/>
<path d="M2899 3392 c-36 -19 3 57 -541 -1024 -143 -285 -261 -518 -262 -518
-1 0 -3 35 -5 78 -1 42 -4 93 -6 112 -2 19 -7 91 -10 160 -4 69 -8 141 -10
160 -2 19 -7 87 -10 150 -4 63 -8 131 -10 150 -2 19 -6 91 -10 160 -3 69 -8
139 -10 155 -2 17 -6 89 -10 160 -4 72 -9 131 -10 133 -2 2 -33 4 -70 4 -72 1
-108 -16 -133 -63 -12 -23 -11 -102 3 -234 2 -22 7 -76 10 -120 3 -44 8 -100
10 -125 2 -25 7 -81 10 -125 6 -92 14 -191 20 -255 3 -25 7 -85 11 -135 3 -49
7 -106 9 -125 6 -59 17 -206 30 -385 4 -49 8 -98 9 -109 2 -17 13 -18 130 -19
70 0 130 4 135 9 10 11 93 169 316 599 143 276 323 622 378 725 21 41 88 170
148 286 l109 211 -99 1 c-74 0 -108 -4 -132 -16z"/>
<path d="M3242 3401 c1 -3 -8 -46 -20 -96 -11 -49 -23 -101 -26 -115 -2 -14
-23 -108 -46 -210 -23 -102 -44 -196 -46 -210 -3 -13 -12 -56 -20 -95 -9 -38
-18 -81 -20 -95 -3 -14 -7 -33 -10 -42 -3 -10 -7 -28 -10 -40 -2 -13 -41 -192
-88 -398 -46 -206 -82 -377 -80 -379 4 -4 164 49 164 56 0 3 21 98 46 212 25
113 57 256 70 316 14 61 27 117 29 126 5 14 43 16 348 17 397 0 392 0 385 8
-3 3 0 29 8 57 8 29 14 57 14 63 0 9 -97 12 -355 12 -196 0 -358 1 -360 3 -2
2 3 31 11 64 16 70 22 95 30 133 10 53 91 419 99 452 2 8 4 18 4 22 1 4 168 9
373 10 l372 3 7 27 c4 15 10 45 13 66 l5 39 -449 0 c-247 1 -449 -2 -448 -6z"/>
<path d="M2904 2838 c-5 -7 -19 -31 -31 -53 l-21 -40 60 -115 c33 -63 64 -119
68 -123 4 -4 14 28 23 72 l16 80 -41 78 c-56 107 -64 118 -74 101z"/>
<path d="M3196 2221 c-18 -79 -20 -103 -7 -116 4 -6 34 -59 66 -120 31 -60 60
-113 64 -118 7 -7 101 21 101 31 0 5 -198 382 -205 390 -2 2 -10 -28 -19 -67z"/>
<path d="M3400 1649 c-113 -37 -200 -68 -195 -69 28 -5 527 -2 532 3 3 3 9 28
14 54 5 26 12 56 15 66 5 16 -2 18 -78 16 -73 -2 -109 -11 -288 -70z"/>
<path d="M408 711 c5 -14 3 -14 -10 -3 -12 9 -18 10 -23 2 -4 -6 -12 -9 -19
-7 -8 3 -11 -6 -11 -27 1 -17 -3 -37 -9 -45 -10 -12 -16 -32 -18 -58 -1 -7 -5
-10 -10 -7 -5 3 -6 10 -3 15 4 5 1 9 -4 9 -6 0 -11 -7 -11 -16 0 -10 -5 -14
-16 -10 -8 3 -12 2 -9 -4 3 -6 -3 -23 -14 -39 -12 -16 -21 -34 -21 -41 0 -6
-5 -8 -12 -4 -7 4 -8 3 -4 -4 10 -16 43 2 51 27 6 20 36 22 43 3 2 -7 -5 -9
-17 -7 -12 2 -21 0 -21 -6 0 -13 43 -5 48 9 2 7 8 10 13 6 5 -3 9 0 9 6 0 6 4
9 9 6 5 -3 14 1 21 9 7 8 9 15 4 15 -5 0 -4 4 1 8 17 12 41 47 28 38 -7 -4
-13 -2 -13 3 0 6 7 11 15 11 15 0 18 7 18 43 0 9 3 17 7 17 6 0 6 30 1 61 -1
3 -7 6 -15 6 -9 0 -12 -6 -8 -16z m7 -11 c8 7 12 5 12 -5 0 -8 -4 -15 -7 -15
-4 0 -6 -14 -5 -31 2 -24 -2 -33 -21 -41 -18 -8 -21 -14 -13 -24 7 -9 4 -17
-13 -28 -21 -15 -24 -15 -35 0 -9 12 -9 22 -2 35 5 11 7 19 3 19 -3 0 -1 7 6
15 7 9 19 14 27 11 8 -3 11 -2 8 3 -3 5 -1 12 5 16 5 3 10 1 10 -4 0 -6 5 -11
11 -11 8 0 7 6 -2 17 -9 11 -10 14 -2 9 9 -5 11 -2 6 10 -5 14 -7 15 -15 1 -5
-9 -15 -14 -24 -10 -13 5 -13 8 2 24 12 13 21 16 28 9 6 -6 14 -6 21 0z m-89
-155 c16 -12 17 -16 4 -24 -8 -6 -19 -6 -25 -2 -5 5 -18 7 -28 5 -18 -2 -18
-2 -1 17 21 23 25 23 50 4z m44 -9 c0 -3 -4 -8 -10 -11 -5 -3 -10 -1 -10 4 0
6 5 11 10 11 6 0 10 -2 10 -4z m-117 -41 c-3 -9 -8 -14 -10 -11 -3 3 -2 9 2
15 9 16 15 13 8 -4z"/>
<path d="M350 613 c0 -16 8 -16 38 1 24 13 24 13 -7 13 -19 0 -31 -5 -31 -14z"/>
<path d="M335 580 c-3 -5 -2 -10 2 -12 13 -7 33 -3 36 6 3 12 -31 17 -38 6z"/>
<path d="M284 538 c-4 -7 -4 -10 1 -6 4 4 14 3 21 -3 9 -7 14 -6 20 3 4 7 4
10 -1 6 -4 -4 -14 -3 -21 3 -9 7 -14 6 -20 -3z"/>
</g>
</svg>
